# xmcd
#
# Track frame offsets: 
#        150
#        12477
#        28035
#        38014
#        52466
#        81356
#        99079
#        113135
#        129747
#        145141
#        160941
#        197915
#        217356
#        230051
#        243283
#        254533
#        268980
#        284294
#        297354
#        309967
#
# Disc length: 4343 seconds
#
# Revision: 0
# Processed by: cddbd v1.5.2PL0 Copyright (c) Steve Scherf et al.
# Submitted via: ExactAudioCopy v0.95b3
#
DISCID=3810f514
DTITLE=The Beatles  - Anotherside Yellow Submarine Songtrack - Disc 1 
DTITLE=FLAC
DYEAR=1900
DGENRE=
TTITLE0=Yellow Submarine (original UK mono mix)
TTITLE1=Only A Northern Song (original UK mono mix)
TTITLE2=All Together Now (original UK mono mix)
TTITLE3=Hey Bulldog (original UK mono mix)
TTITLE4=It's All Too Much (original UK mono mix)
TTITLE5=All You Need Is Love (original UK mono mix)
TTITLE6=Baby, You're A Rich Man (US mono mix)
TTITLE7=Yellow Submarine (theatrical ad in stereo)
TTITLE8=Hey Bulldog (unreleased deleted segment)
TTITLE9=Lucy In The Sky With Diamonds (upgraded version)
TTITLE10=It's All Too Much (upgraded version)
TTITLE11=All You Need Is Love (upgraded version with clipped ending)
TTITLE12=All Together Now (from production master tape)
TTITLE13=Yellow Submarine (original stereo soundtrack)
TTITLE14=Eleanor Rigby (original stereo soundtrack)
TTITLE15=All Together Now (original stereo soundtrack, different mix w
TTITLE15=,spoken intro)
TTITLE16=When I'm Sixty-Four (original stereo soundtrack, different mi
TTITLE16=x and extra sounds)
TTITLE17=Only A Northern Song (original stereo soundtrack, different m
TTITLE17=ix and extra sounds)
TTITLE18=Nowhere Man (original stereo soundtrack, different mix w,spok
TTITLE18=en intro)
TTITLE19=Lucy In The Sky With Diamonds (original stereo soundtrack, di
TTITLE19=fferent mix w,spoken intro)
EXTD=
EXTT0=
EXTT1=
EXTT2=
EXTT3=
EXTT4=
EXTT5=
EXTT6=
EXTT7=
EXTT8=
EXTT9=
EXTT10=
EXTT11=
EXTT12=
EXTT13=
EXTT14=
EXTT15=
EXTT16=
EXTT17=
EXTT18=
EXTT19=
PLAYORDER=
